PathFileType	4	(X/Y/Z)	C:/Users/beibeiliu/ov580/test_trc/User3\sequence.6_training_dense_right.trc
DataRate	CameraRate	NumFrames	NumMarkers	Units	OrigDataRate	OrigDataStartFrame	OrigNumFrames
120	120	22	19	mm	120	1	107
Frame#	Time	ThumbCMC			ThumbMCP			ThumbIP			ThumbTip			IndexMCP			IndexPIP			IndexTip			MiddleMCP			MiddlePIP			MiddleTip			RingMCP			RingPIP			RingTip			PinkyMCP			PinkyPIP			PinkyTip			BackHand1			BackHand2			BackHand3	
		X0	Y0	Z0	X1	Y1	Z1	X2	Y2	Z2	X3	Y3	Z3	X4	Y4	Z4	X5	Y5	Z5	X6	Y6	Z6	X7	Y7	Z7	X8	Y8	Z8	X9	Y9	Z9	X10	Y10	Z10	X11	Y11	Z11	X12	Y12	Z12	X13	Y13	Z13	X14	Y14	Z14	X15	Y15	Z15	X16	Y16	Z16	X17	Y17	Z17	X18	Y18	Z18	
0	0	64.0643	8.75034	-22.4282	47.0897	21.1779	-54.6116	61.9887	22.1077	-85.1544	87.1226	9.61473	-89.3654	72.6431	39.5037	-93.3243	59.1068	12.4232	-111.303	50.5396	-7.32464	-89.5279	90.3725	28.6867	-101.055	72.9091	0.818662	-110.789	75.6732	-15.0244	-73.5787	101.44	11.8782	-96.0035	88.6988	-15.8941	-92.3864	91.7318	-12.2811	-57.8487	113.51	0.533372	-89.7229	100.428	-23.3381	-81.5587	105.485	-20.8914	-52.2772	120.419	28.6648	-44.6692	122.286	16.0227	-13.2035	90.6627	30.885	-21.6589	
1	0.00833333	54.3278	4.8408	-26.1415	37.478	5.37685	-49.6984	39.3276	6.93058	-84.7394	59.0184	-3.61344	-99.68	58.5807	23.6787	-95.2126	46.1296	-6.72027	-108.213	52.2623	-22.4511	-78.8336	75.8254	16.492	-101.281	63.7463	-17.5468	-104.565	71.6598	-20.7393	-66.2572	88.8083	-0.72861	-97.031	86.5889	-28.4301	-90.545	84.0917	-20.3068	-55.2121	105.678	-8.4165	-88.5324	93.9384	-32.5859	-77.1466	96.0574	-21.0501	-49.3117	110.331	24.0361	-48.5832	114.733	14.9502	-16.7951	80.89	28.6989	-27.2966	
2	0.0166667	47.4343	-6.44903	-21.2184	31.3643	-12.7664	-50.4727	22.5463	-17.9042	-81.2708	39.0611	-25.5832	-100.693	49.1592	7.47548	-95.5788	38.313	-22.7437	-101.846	50.8284	-31.5124	-71.3244	66.0316	-2.31501	-104.683	57.0267	-32.8318	-99.5058	67.5643	-28.4477	-60.57	84.7705	-14.498	-95.7505	76.8435	-39.9189	-86.3405	79.7003	-30.2762	-52.9421	97.9573	-20.9662	-88.8789	89.7205	-42.4633	-74.3871	90.549	-31.8768	-48.0484	104.036	16.5474	-52.4547	111.865	11.6565	-21.9123	76.4821	21.3925	-28.4634	
3	0.025	41.4953	-16.4909	-21.0554	23.4886	-27.2276	-44.0211	17.9701	-34.3324	-77.5924	33.5129	-44.6486	-97.6383	39.5716	-8.87049	-92.1052	33.9525	-43.8625	-93.5562	48.1567	-45.5299	-64.9147	63.0678	-18.9952	-102.149	55.7403	-51.3786	-93.5524	64.7735	-42.7043	-58.1247	76.1276	-30.4113	-94.2696	72.9901	-56.4273	-76.9379	74.1396	-40.5308	-48.5491	92.809	-33.9599	-85.7362	85.0378	-54.7104	-70.9019	87.8625	-38.6071	-41.6216	94.3801	8.38657	-53.0461	104.67	2.40841	-20.3336	65.3987	11.4844	-31.9294	
4	0.0333333	37.363	-23.2926	-17.0831	20.3961	-31.6974	-40.0631	18.2864	-39.5869	-72.7592	43.0556	-49.9161	-86.0072	34.7222	-27.0331	-92.6032	26.5706	-58.563	-94.3729	39.7461	-66.1504	-63.9725	52.4739	-31.1934	-96.3795	48.8531	-66.6326	-87.8251	57.1137	-58.6677	-53.0956	71.5576	-40.7467	-87.8567	66.5845	-68.7164	-70.1033	70.5868	-49.7793	-42.5815	90.2487	-45.652	-81.9046	80.1982	-66.7215	-61.4729	85.1811	-47.002	-38.7285	88.8911	-2.59478	-50.9601	102.462	-2.41565	-21.9257	65.5223	0.73104	-29.0258	
5	0.0416667	35.3728	-29.447	-14.7559	19.754	-36.899	-37.2567	21.6819	-47.2079	-65.1835	45.4496	-56.5518	-76.4799	27.1509	-36.5143	-87.3249	25.2894	-69.807	-90.4756	27.2455	-76.8754	-56.2577	48.4802	-43.1871	-93.3793	44.6997	-77.1928	-86.3467	51.4226	-70.6053	-49.0985	63.4007	-54.1434	-85.0237	64.9784	-78.9241	-67.589	65.1187	-60.6004	-40.5159	83.4867	-59.2067	-79.0716	75.7234	-75.2598	-59.9352	83.2899	-54.0113	-32.9661	87.1124	-12.066	-54.5555	95.1921	-9.28621	-24.5773	60.0878	-6.0969	-32.001	
6	0.05	34.5999	-34.8987	-11.5868	13.6047	-44.4009	-35.1087	19.7808	-56.4114	-67.4658	46.2856	-66.3227	-76.43	24.2684	-40.4949	-84.1056	14.4132	-73.0895	-85.1389	24.7482	-80.8666	-54.9028	40.0497	-48.8014	-89.1953	36.3316	-81.3465	-79.3585	47.7049	-71.6477	-42.8781	61.4701	-60.4459	-82.7248	60.4193	-83.6438	-63.3257	64.6509	-64.8969	-36.3739	77.3324	-61.1664	-75.0841	73.9522	-80.7685	-52.7044	80.1361	-57.911	-30.4673	81.1347	-15.3498	-48.878	90.7991	-14.1096	-19.6119	55.1927	-10.3695	-27.9092	
7	0.0583333	31.2864	-37.3138	-6.33459	11.4684	-56.9925	-31.0735	14.5609	-73.9479	-59.3553	39.8429	-82.0086	-74.7355	20.4292	-36.4244	-82.9137	14.7005	-69.4751	-80.5332	22.4199	-68.1584	-47.8039	39.3934	-50.5931	-86.5838	33.7049	-79.2346	-72.3257	49.9455	-62.3167	-38.2674	58.9815	-61.3575	-79.8145	57.314	-83.1272	-59.7976	58.8928	-65.0303	-33.3781	75.2776	-61.4344	-73.2299	67.6824	-80.9993	-53.6754	77.6002	-62.1723	-27.2095	79.2388	-15.7413	-50.3652	91.9419	-15.2331	-15.7128	53.9799	-8.61006	-22.3808	
8	0.0666667	32.2572	-36.0749	-11.1972	10.7351	-56.3251	-28.8054	11.0305	-72.8178	-54.4788	31.0676	-84.8978	-72.3952	21.7002	-36.745	-81.429	12.3224	-66.9727	-76.6395	23.9189	-63.4383	-47.2375	40.4231	-47.8525	-85.4786	33.6624	-77.3729	-68.7676	44.335	-63.0211	-39.1785	57.126	-55.4455	-78.0045	51.908	-80.8946	-60.6565	59.3661	-61.3526	-30.7744	74.0396	-63.6974	-72.0503	64.4047	-78.6618	-49.8977	77.2333	-63.453	-27.9604	84.9478	-17.2227	-48.6841	94.8978	-17.473	-18.0326	58.6784	-9.44932	-21.4907	
9	0.075	31.9203	-33.8507	-5.09383	10.9251	-54.4586	-28.1239	7.27514	-70.3475	-53.4657	28.6345	-82.5064	-73.0755	24.3031	-36.4918	-80.6662	11.1862	-63.9501	-74.8931	26.8253	-56.3927	-44.0591	37.1707	-48.0271	-85.3492	32.5645	-76.4736	-68.3624	43.4018	-61.9753	-37.0395	58.5083	-56.2737	-77.0802	50.3487	-80.2824	-59.2038	57.3308	-62.1218	-30.4811	75.6674	-66.1986	-70.7465	64.7363	-79.3572	-48.0997	72.1253	-60.278	-25.787	82.1262	-19.0167	-43.9292	95.6958	-19.4547	-18.0506	62.8109	-8.29801	-20.6283	
10	0.0833333	35.2622	-31.3614	-7.90231	9.91246	-50.2702	-28.8665	4.56824	-68.4791	-53.6662	28.5159	-80.0939	-70.7238	24.6143	-31.9261	-77.0117	13.0401	-63.6851	-69.2374	29.6813	-56.878	-43.6055	41.1794	-47.5512	-83.8663	34.3093	-75.7904	-71.5805	46.1042	-61.4219	-37.021	58.7851	-59.837	-76.2244	51.7709	-80.2981	-56.5841	58.6284	-61.3585	-28.9079	76.567	-66.7857	-68.187	64.6596	-78.1725	-46.2451	74.2597	-56.2766	-23.3183	85.0711	-18.495	-41.8805	97.9972	-17.3229	-13.2551	63.5542	-9.20721	-19.3629	
11	0.0916667	35.144	-30.4265	-2.28874	15.0999	-46.9018	-25.7059	6.37492	-65.1571	-55.4838	28.435	-78.2371	-71.7881	22.4078	-32.2577	-76.4335	15.2673	-62.702	-69.2738	29.8663	-51.1384	-41.3902	40.3588	-42.2097	-81.2283	33.1142	-74.1338	-68.8972	43.8536	-59.2732	-34.0909	58.5641	-57.208	-75.3423	53.1352	-78.7256	-55.6092	58.4182	-57.6017	-27.867	70.739	-63.8654	-66.7116	64.9182	-76.8435	-42.3272	76.3923	-56.7801	-22.9245	85.9076	-17.5822	-46.2312	97.0464	-16.6667	-13.7489	59.1471	-6.28238	-21.2908	
12	0.1	32.0699	-29.2353	-1.74303	13.3498	-45.9681	-25.1923	5.78336	-62.2998	-49.651	23.5544	-74.8718	-69.1464	20.0815	-31.7364	-77.2859	15.2246	-61.3947	-68.6749	25.2409	-51.5595	-41.1101	37.133	-44.4405	-82.5762	35.2487	-72.9771	-66.3386	46.5979	-58.1804	-35.2713	56.3123	-56.1742	-74.3214	54.2465	-77.7388	-52.1881	56.6854	-56.9889	-26.6673	72.3482	-63.9667	-67.332	63.4584	-75.1565	-43.821	73.1294	-55.0632	-23.1762	84.4556	-13.8247	-43.593	95.6646	-16.4741	-13.2759	60.4499	-3.64736	-16.6722	
13	0.108333	35.6524	-28.6238	-5.74691	13.0718	-45.2286	-26.1523	7.40648	-59.083	-51.9732	22.3467	-73.1551	-69.1297	25.5005	-29.4385	-75.918	16.9707	-60.2903	-69.8408	30.3333	-46.6757	-39.8526	44.4869	-41.0025	-82.4709	34.76	-70.9237	-70.7067	48.9427	-55.7417	-34.5481	59.1751	-56.7995	-75.044	49.5483	-74.3762	-54.9998	58.9894	-59.6329	-28.302	76.76	-61.1487	-67.899	65.852	-74.3988	-42.8919	71.861	-56.6803	-24.3763	85.4121	-13.5726	-40.2277	96.1579	-14.9186	-13.9976	60.343	-2.31722	-16.1926	
14	0.116667	34.8866	-27.9995	-6.05456	11.2985	-44.73	-25.2812	7.44944	-58.5115	-53.0917	27.804	-71.8717	-73.9624	23.8232	-29.7794	-79.1701	19.1169	-59.2261	-69.099	28.9641	-47.1763	-41.6565	41.48	-40.0606	-82.3007	36.1751	-69.6026	-72.776	47.8136	-55.6569	-35.7394	62.1679	-54.879	-75.5971	53.4618	-75.3257	-53.0523	59.3991	-54.3346	-27.9061	77.0728	-59.5527	-67.6229	68.827	-77.1398	-46.2919	75.5322	-53.9764	-23.0715	89.5444	-14.9997	-42.6153	96.5263	-13.786	-11.6986	61.2809	-3.98199	-20.4453	
15	0.125	34.7685	-26.8361	-6.52951	15.1449	-44.2562	-26.9565	7.59743	-58.8406	-53.2402	26.1522	-71.7836	-71.6978	25.7269	-28.7228	-79.16	17.4595	-57.8898	-69.026	28.5644	-46.7241	-41.4456	43.4079	-42.2705	-84.099	33.5089	-69.011	-69.1119	45.6234	-56.8032	-36.0984	58.9753	-53.4506	-75.8834	56.8968	-77.1078	-58.0672	62.5182	-56.5207	-28.6003	78.1538	-61.1104	-68.5022	69.0018	-76.3432	-46.6914	75.8592	-55.5711	-24.2103	93.2085	-15.0018	-42.3585	101.643	-15.0029	-15.0358	64.6314	-4.5598	-17.5668	
16	0.133333	39.2284	-28.2756	-6.30356	14.4586	-44.4495	-27.7739	11.3577	-58.7462	-56.4822	28.6537	-72.8303	-72.6929	26.3618	-29.1186	-79.7712	15.6658	-56.848	-70.9667	32.7119	-47.6327	-42.3583	44.6393	-38.8746	-83.7036	33.5103	-68.3864	-72.435	49.4948	-59.2792	-38.9153	62.2874	-50.4879	-75.2256	54.136	-75.5857	-55.5086	60.6617	-55.399	-28.7837	80.4328	-60.5693	-69.0976	66.9908	-74.4062	-45.2838	75.8455	-54.1728	-24.8959	92.42	-14.887	-41.4984	103.277	-15.7549	-11.6702	66.8605	-5.61043	-17.0533	
17	0.141667	35.3288	-27.7554	-6.5335	16.9083	-45.4984	-30.0035	7.16051	-60.7435	-52.9115	24.4876	-73.8089	-71.4263	27.8477	-30.7368	-80.2833	17.6071	-59.0146	-71.8757	30.1589	-49.9841	-43.8517	44.7537	-43.9186	-84.3795	34.9832	-71.1053	-69.5071	45.7103	-57.1078	-35.8175	58.4425	-53.9095	-75.6469	55.0246	-77.0287	-53.2405	58.1815	-57.5392	-29.8834	74.5917	-62.895	-68.2461	66.1814	-76.03	-44.4242	77.8605	-59.2419	-23.0769	92.5681	-16.4671	-42.0064	102.464	-16.8613	-9.65463	63.3426	-5.28527	-16.3217	
18	0.15	33.2243	-29.0668	-1.27297	14.2002	-46.3261	-28.8159	4.99141	-62.2885	-51.6884	23.7501	-76.0668	-73.519	24.4428	-29.123	-77.1328	15.1702	-59.0329	-73.7585	31.6339	-50.5361	-42.5193	40.3403	-43.9054	-84.3004	34.3417	-71.4305	-73.4599	49.4774	-59.0487	-37.2062	63.3784	-54.9219	-75.4212	52.1431	-78.7581	-57.7865	58.4882	-58.0182	-29.7232	76.7952	-61.9633	-68.1252	64.3158	-76.8124	-44.2513	75.8425	-61.2189	-25.2741	86.7637	-16.3294	-42.0402	96.8048	-19.0809	-10.625	64.6118	-6.60726	-17.3956	
19	0.158333	33.083	-29.0479	-4.42132	16.2969	-45.829	-29.2459	8.19248	-61.127	-50.7475	23.7892	-75.8931	-71.9461	25.9267	-28.5002	-75.3415	13.6114	-58.7781	-73.0896	24.3893	-50.9726	-42.9346	44.5299	-46.1044	-84.8299	34.0425	-72.2951	-70.9985	47.4161	-58.0827	-35.9246	59.2919	-58.3316	-76.0844	49.4303	-77.9674	-55.5141	58.6701	-55.8968	-29.6777	75.7729	-61.0501	-67.1006	65.0153	-78.3727	-46.3626	72.0514	-56.1923	-23.6422	85.8159	-16.5399	-44.119	98.5018	-18.2534	-14.3511	65.7333	-7.13352	-16.054	
20	0.166667	36.2767	-29.8012	-6.92358	15.8405	-45.5804	-25.3706	4.19567	-62.4635	-52.2509	26.3471	-73.0943	-69.6089	29.1263	-30.0386	-78.0247	12.5934	-57.4761	-73.3519	25.0414	-50.1616	-43.6198	43.0159	-40.27	-83.0089	32.9748	-71.448	-74.3427	44.7668	-56.0261	-34.7894	58.5557	-56.0713	-76.4911	49.8967	-76.9571	-54.9023	61.258	-59.8258	-30.8011	77.2471	-65.2653	-68.517	67.3882	-79.1189	-47.2531	76.6086	-58.8258	-24.2917	92.6456	-17.7902	-41.3916	101.951	-17.771	-12.277	60.5796	-5.67431	-20.0018	
21	0.175	34.5754	-27.9673	-6.98688	17.5332	-45.6392	-30.0787	5.18545	-61.4786	-54.7182	23.8717	-74.6174	-70.8528	26.5679	-30.365	-80.1983	12.5806	-56.4659	-75.8045	27.6784	-47.7721	-42.0992	43.4394	-42.1535	-84.6567	30.1678	-69.8487	-70.3353	45.46	-57.103	-36.052	60.624	-57.5389	-77.4139	52.1782	-76.8025	-58.9736	61.1449	-59.3296	-30.5413	74.7705	-65.6534	-68.7369	64.8001	-76.0145	-46.4809	74.1668	-56.8066	-25.1593	88.4042	-15.1389	-39.8788	100.162	-18.2096	-11.8042	66.4531	-5.67674	-18.0446	
